<svg width="40" height="31" viewBox="0 0 40 31" fill="none" xmlns="http://www.w3.org/2000/svg">
<path d="M15.5 10.3334C21.9203 10.3334 27.125 8.59848 27.125 6.45837C27.125 4.31827 21.9203 2.58337 15.5 2.58337C9.07969 2.58337 3.875 4.31827 3.875 6.45837C3.875 8.59848 9.07969 10.3334 15.5 10.3334Z" stroke="#E1D91E" stroke-width="2" stroke-linecap="round" stroke-linejoin="round"/>
<path d="M27.125 15.5C27.125 17.6442 21.9583 19.375 15.5 19.375C9.04167 19.375 3.875 17.6442 3.875 15.5" stroke="#E1D91E" stroke-width="2" stroke-linecap="round" stroke-linejoin="round"/>
<path d="M3.875 6.45837V24.5417C3.875 26.6859 9.04167 28.4167 15.5 28.4167C21.9583 28.4167 27.125 26.6859 27.125 24.5417V6.45837" stroke="#E1D91E" stroke-width="2" stroke-linecap="round" stroke-linejoin="round"/>
<path d="M39 21C39 26.0195 35.1467 30 30.5 30C25.8533 30 22 26.0195 22 21C22 15.9805 25.8533 12 30.5 12C35.1467 12 39 15.9805 39 21Z" fill="#F6F7F3" stroke="#E1D91E" stroke-width="2"/>
</svg>
