<svg width="108" height="110" viewBox="0 0 108 110" fill="none" xmlns="http://www.w3.org/2000/svg">
<path fill-rule="evenodd" clip-rule="evenodd" d="M56.9997 99.6667C83.6935 99.6667 105.333 78.0271 105.333 51.3333C105.333 24.6396 83.6935 3 56.9997 3C30.306 3 8.66638 24.6396 8.66638 51.3333C8.66638 78.0271 30.306 99.6667 56.9997 99.6667Z" fill="#EDE8E2" stroke="#8B9D83" stroke-width="4.83333"/>
<path fill-rule="evenodd" clip-rule="evenodd" d="M56.9997 94.834C56.9997 94.834 76.333 79.0158 76.333 51.334C76.333 23.6522 56.9997 7.83398 56.9997 7.83398C56.9997 7.83398 37.6664 23.6522 37.6664 51.334C37.6664 79.0158 56.9997 94.834 56.9997 94.834Z" stroke="#8B9D83" stroke-width="4.83333"/>
<path d="M0.137207 73.7655C0.137207 71.6513 1.85105 69.9375 3.96517 69.9375H50.8578C52.9719 69.9375 54.6857 71.6513 54.6857 73.7655V105.506C54.6857 107.62 52.9719 109.334 50.8578 109.334H3.96517C1.85104 109.334 0.137207 107.62 0.137207 105.506V73.7655Z" fill="#306838"/>
<path fill-rule="evenodd" clip-rule="evenodd" d="M46.0312 75.5123C47.1364 74.9172 48.5148 75.3307 49.11 76.436C49.7051 77.5412 49.2916 78.9196 48.1863 79.5147L28.4883 90.1214C27.8156 90.4836 27.0059 90.4836 26.3331 90.1214L6.63507 79.5147C5.52984 78.9196 5.11632 77.5412 5.71144 76.436C6.30656 75.3307 7.68496 74.9172 8.79019 75.5123L27.4107 85.5388L46.0312 75.5123Z" fill="white"/>
<path d="M11.083 65.8333H102.916" stroke="#8B9D83" stroke-width="4.83333" stroke-linecap="round"/>
<path d="M11.083 36.8333H102.916" stroke="#8B9D83" stroke-width="4.83333" stroke-linecap="round"/>
</svg>
