<svg width="70" height="111" viewBox="0 0 70 111" fill="none" xmlns="http://www.w3.org/2000/svg">
<path fill-rule="evenodd" clip-rule="evenodd" d="M66.5 8.25V102.75C66.5 105.649 64.1495 108 61.25 108H8.75C5.8505 108 3.5 105.649 3.5 102.75V8.25C3.5 5.3505 5.8505 3 8.75 3H61.25C64.1495 3 66.5 5.3505 66.5 8.25V8.25Z" fill="#EDE8E2" stroke="#8B9D83" stroke-width="5.25" stroke-linecap="round" stroke-linejoin="round"/>
<circle cx="45" cy="80.5" r="3" fill="#306838"/>
<circle cx="35" cy="80.5" r="3" fill="#8B9D83"/>
<circle cx="25" cy="80.5" r="3" fill="#8B9D83"/>
<path fill-rule="evenodd" clip-rule="evenodd" d="M33.7626 49.3662L37.7201 45.4088C38.813 44.3158 39.084 42.6461 38.3927 41.2635L38.1685 40.8151C37.4772 39.4325 37.7482 37.7628 38.8412 36.6698L43.7481 31.763C44.0987 31.4123 44.6671 31.4123 45.0177 31.763C45.0859 31.8312 45.1427 31.91 45.1859 31.9963L47.1681 35.9607C48.6845 38.9936 48.0901 42.6566 45.6924 45.0543L34.9213 55.8254C32.3114 58.4353 28.4509 59.3466 24.9494 58.1794L20.6141 56.7343C20.1437 56.5775 19.8895 56.0691 20.0463 55.5987C20.0904 55.4665 20.1646 55.3464 20.2632 55.2478L25.0237 50.4873C26.1166 49.3944 27.7864 49.1234 29.1689 49.8147L29.6174 50.0389C30.9999 50.7302 32.6697 50.4592 33.7626 49.3662Z" fill="#306838"/>
<rect x="45.5" y="3" width="5.25" height="21" transform="rotate(90 45.5 3)" stroke="#8B9D83" stroke-width="5.25" stroke-linecap="round" stroke-linejoin="round"/>
</svg>
