<svg width="29" height="21" viewBox="0 0 29 21" fill="none" xmlns="http://www.w3.org/2000/svg">
<path fill-rule="evenodd" clip-rule="evenodd" d="M2 0C0.895431 0 0 0.89543 0 2V19C0 20.1046 0.89543 21 2 21H27C28.1046 21 29 20.1046 29 19V2C29 0.895431 28.1046 0 27 0H2ZM25.8576 3.63129C25.5461 3.04779 24.8246 2.82947 24.2461 3.14366L14.5 8.43717L4.75387 3.14366C4.17538 2.82947 3.45392 3.04779 3.14243 3.63129C2.83094 4.2148 3.04738 4.94254 3.62586 5.25673L13.936 10.8566C14.2881 11.0478 14.7119 11.0478 15.064 10.8566L25.3741 5.25673C25.9526 4.94254 26.1691 4.2148 25.8576 3.63129Z" fill="#306838"/>
</svg>
