<svg width="797" height="745" viewBox="0 0 797 745" fill="none" xmlns="http://www.w3.org/2000/svg">
<g clip-path="url(#clip0_721_1668)">
<path d="M721.734 499.458C713.579 490.39 708.043 479.369 701.197 469.325C699.728 467.14 698.26 464.955 696.577 463.009C699.783 463.74 702.944 463.568 706.274 462.255C707.82 461.492 708.678 460.539 709.298 459.373C716.615 460.787 723.693 461.987 731.438 462.924C739.183 463.862 749.56 467.6 757.314 464.234C758.715 465.064 760.092 465.442 761.492 466.271C768.645 455.465 774.635 444.044 778.773 431.817C785.899 411.502 794.731 393.584 796.347 371.757C798.078 352.189 792.145 337.792 783.794 320.357C773.173 298.29 753.816 282.585 739.052 263.687C725.498 246.309 716.627 227.543 700.026 212.595C690.065 203.626 679.031 195.847 669.307 187.092C661.244 179.831 656.227 170.14 648.186 163.331C644.866 160.341 641.376 158.493 638.485 155.027C634.385 150.042 632.711 143.792 629.706 138.068C624.995 129.946 618.377 124.418 611.284 118.463C595.202 104.845 583.905 87.344 566.345 75.8444C557.447 69.9879 548.493 67.5311 539.189 62.6025C534.536 60.1381 529.715 58.8152 524.917 57.944C523.968 57.0898 523.019 56.2356 522.071 55.3814C507.015 39.6696 487.841 27.5785 469.637 16.7934C439.544 -0.81784 397.06 -3.71523 363.794 5.56717C345.485 10.6392 330.464 22.5524 312.912 29.1684C292.718 37.2868 275.257 45.7094 256.104 56.4887C238.925 66.0282 222.436 75.7567 203.743 82.2083C186.168 88.3727 169.51 99.2426 154.703 110.918C139.445 122.617 123.826 136.148 105.653 143.93C98.7791 146.795 91.1252 147.664 84.7483 151.408C75.9447 156.416 69.7955 164.676 64.0978 172.912C54.395 187.026 46.3295 202.184 36.4123 216.537C25.017 233.009 12.8097 251.336 5.59242 269.844C-0.621213 285.807 1.02394 304.966 0.963386 321.726C0.948375 339.39 7.42413 355.569 16.5638 370.697C27.8835 388.65 41.9676 403.056 49.337 423.488C50.1396 425.936 50.9194 427.931 51.9364 430.14C52.1964 430.806 52.2419 431.709 52.7163 432.136C52.9534 432.35 52.9535 432.35 53.1906 432.563C53.9704 434.559 54.9874 436.768 55.9816 438.525C57.0992 438.238 58.0023 438.189 58.8827 437.688C64.4837 441.007 71.5399 441.755 78.3134 441.387C93.2151 440.576 107.935 436.152 122.836 435.342C138.641 434.482 153.218 440.709 168.854 440.991C169.758 440.942 170.446 441.131 171.112 440.868C172.49 441.246 174.082 441.386 175.673 441.526C178.168 441.616 181.047 440.327 183.779 440.632C184.016 440.845 184.253 441.059 184.039 441.297C182.324 443.202 180.394 445.345 178.442 447.036C168.917 455.706 156.907 459.983 147.382 468.653C137.644 477.562 128.073 485.329 117.837 493.358C110.22 499.434 104.385 504.96 99.6136 513.598C98.3727 515.93 98.1261 520.019 100.046 522.179C100.521 522.606 100.781 523.272 101.255 523.699C103.175 525.859 105.264 526.877 107.545 527.206C118.705 541.998 127.676 558.267 137.956 573.559C132.618 579.964 129.347 586.935 133.876 591.444C134.351 591.871 134.994 591.157 134.52 590.73C132.034 586.336 135.373 580.72 139.447 576.196C145.298 584.482 150.89 592.104 153.671 602.369C156.17 611.518 156.366 619.886 160.648 628.484C170.207 647.439 186.289 661.057 204.684 671.152C220.064 679.827 237.113 685.693 252.685 693.677C271.271 703.083 287.162 717.391 304.913 728.2C318.227 736.308 333.324 743.865 349.412 744.122C367.306 744.281 384.101 736.121 400.558 730.244C441.059 716.266 480.36 696.465 517.572 675.645C554.57 655.064 593.534 637.546 627.052 610.813C659.713 585.033 675.602 545.445 708.546 520.782C709.855 519.805 711.378 518.59 712.688 517.613C721.121 518.739 728.703 507.457 721.734 499.458ZM333.737 47.0573C351.796 37.017 367.574 26.6478 388.469 23.4731C408.247 20.5857 432.768 21.9692 451.241 29.1166C461.403 33.0928 470.347 39.8526 479.889 44.9948C489.668 50.3506 499.639 55.0165 508.368 62.0145C523.004 73.8995 538.124 81.9086 554.024 91.9132C555.187 92.5293 556.068 92.0285 556.925 91.0761C566.129 98.5012 573.81 107.141 582.247 117.325C593.599 131.427 607.387 139.962 614.789 156.543C621.411 171.128 634.172 181.756 644.293 193.887C655.645 207.989 671.33 218.232 684.183 230.667C698.933 244.81 705.883 261.415 717.135 278.014C727.889 293.733 741.882 306.332 750.447 323.53C754.469 331.463 755.59 340.233 757.615 348.955C759.854 357.438 757.632 362.767 756.259 371.447C754.086 386.737 745.907 399.637 741.431 414.147C739.109 421.972 737.475 429.987 733.776 437.435C731.508 441.861 728.981 445.621 725.788 449.645C720.324 449.036 715.311 448.403 709.824 447.343C704.551 446.044 699.064 444.984 693.814 444.137C693.577 443.924 693.577 443.924 693.34 443.71C694.366 441.617 695.37 439.071 696.396 436.977C691.146 436.13 685.874 434.832 680.624 433.985C680.026 435.603 679.406 436.769 678.808 438.387C673.512 436.637 668.003 435.125 662.707 433.375C659.478 432.192 656.271 431.46 652.85 430.967C653.471 429.801 653.854 428.422 654.26 427.494C649.89 426.146 645.306 425.037 640.937 423.69C640.339 425.307 639.742 426.925 638.907 428.329C629.999 426.775 621.091 425.222 612.995 421.813C613.83 420.409 614.427 418.791 615.025 417.173C611.13 416.253 607.472 415.546 603.362 414.864C601.14 420.193 598.681 425.309 595.082 430.26C588.527 439.448 580.695 445.762 572.954 453.882C570.166 456.978 565.381 460.861 563.543 464.811C561.107 470.378 562.543 476.414 559.655 482.006C553.451 493.666 540.369 499.133 531.556 508.444C522.529 517.993 511.773 524.692 501.277 532.057C502.508 534.028 503.739 535.999 504.734 537.756C516.009 532.387 527.308 527.47 536.358 518.373C545.431 509.727 555.973 503.266 563.86 493.553C571.962 483.601 569.021 470.174 577.359 460.436C581.196 455.698 586.975 453.572 591.523 449.475C595.642 445.855 599.501 441.569 602.909 437.307C605.03 434.474 607.151 431.642 608.821 428.833C615.01 434.837 623.129 438.698 631.202 441.656C630.987 441.894 630.773 442.132 630.773 442.132C623.169 452.962 613.576 460.278 605 469.802C601.569 473.612 596.118 477.758 594.088 482.397C591.246 488.893 592.965 496.045 589.434 502.352C581.967 515.892 566.672 522.385 556.358 533.363C540.041 551.008 518.539 560.103 501.251 576.442C499.919 576.968 498.35 577.279 497.255 578.018C496.374 578.519 495.257 578.806 494.376 579.307C495.572 576.072 497.219 572.812 498.414 569.577C499.012 567.959 496.685 566.727 496.088 568.344C494.486 572.508 492.885 576.671 490.832 580.859C486.385 582.459 481.723 584.298 477.276 585.899C465.932 589.912 454.971 592.547 445.615 600.075C431.26 611.726 414.802 617.603 397.214 619.013C398.218 616.467 399.673 613.897 400.677 611.352C401.274 609.734 399.185 608.715 398.351 610.119C396.918 613.141 395.486 616.163 394.053 619.185C385.473 619.651 376.848 619.215 368.392 617.637C372.283 609.499 375.723 601.386 378.925 593.06C389.64 594.515 401.212 595.018 409.755 589.345C414.96 589.288 421.359 585.996 425.761 583.492C428.676 587.41 431.781 590.638 435.722 592.461C438.263 593.456 441.807 591.904 441.648 588.742C441.183 584.012 439.837 579.783 438.255 575.34C438.469 575.102 438.684 574.864 439.135 574.839C429.827 560.853 424.615 542.794 420.228 527.634C417.515 518.724 414.756 508.91 412.449 499.072C411.126 495.294 409.781 491.064 408.673 487.049C409.124 487.024 409.79 486.761 410.242 486.737C409.608 483.148 409.212 479.773 409.029 476.16C408.578 476.184 408.363 476.422 407.912 476.447C407.246 476.71 406.58 476.972 405.7 477.473C403.055 469.918 399.507 462.411 394.909 456.547C394.672 456.334 394.435 456.12 394.198 455.907C398.668 454.758 403.138 453.609 406.942 452.722C415.86 449.973 419.277 441.408 426.963 436.688C437.719 429.989 449.505 430.253 460.193 422.199C467.619 416.813 474.457 408.742 478.562 400.366C482.476 392.681 481.638 385.027 478.801 378.161C482.569 372.069 486.123 366.214 489.677 360.36C490.954 363.234 492.682 366.084 494.411 368.934C503.267 382.945 503.96 392.191 495.872 406.898C491.506 414.608 486.091 423.96 479.422 430.89C479.185 430.677 478.971 430.915 478.756 431.153C469.378 438.23 458.859 445.143 448.509 450.914C444.322 453.18 439.637 454.567 435.947 457.712C432.708 460.832 430.892 465.233 427.654 468.353C423.986 471.949 420.205 473.287 415.949 474.198C416.797 477.549 417.645 480.899 418.256 484.036C422.489 482.674 426.462 480.646 429.938 477.74C438.413 470.712 442.994 462.763 452.44 457.041C459.912 452.558 466.841 446.294 473.081 439.84C481.716 435.974 487.696 428.855 494.106 421.26C501.778 411.785 513.57 398.688 514.287 385.968C514.511 381.427 513.38 376.96 511.132 372.779C516.592 364.33 520.63 354.6 524.667 344.869C527.244 351.07 529.82 357.27 532.826 362.994C532.634 363.684 532.228 364.612 531.799 365.088C531.393 366.016 530.987 366.944 530.344 367.658C530.536 366.968 524.556 374.087 526.18 370.376C526.371 369.686 525.683 369.497 525.254 369.973C524.848 370.901 524.204 371.615 523.798 372.543C523.584 372.781 523.844 373.447 524.081 373.66C528.282 376.149 531.667 371.436 534.126 366.32C537.697 374.278 536.492 381.817 536.258 390.661C535.892 405.853 529.87 421.126 518.179 431.726C511.464 437.752 503.372 443.401 495.686 448.122C485.382 454.796 478.521 462.416 469.188 470.396C461.808 476.685 455.139 483.615 447.758 489.904C440.806 495.717 435.346 504.167 428.586 509.29C427.491 510.029 426.396 510.768 424.85 511.531C425.438 514.216 426.241 516.664 427.066 519.563C434.889 517.552 438.725 512.814 445.248 507.478C459.795 495.137 474.602 483.462 487.251 469.414C499.686 455.603 519.925 448.388 531.388 433.272C544.116 416.275 547.688 401.814 549.158 381.58C549.327 380.439 549.282 379.536 549.236 378.632C549.473 378.846 549.925 378.821 550.139 378.583C559.855 369.223 565.8 356.898 572.93 345.641C573.573 344.926 573.979 343.998 574.622 343.284C576.328 345.682 577.842 348.77 578.453 351.907C579.064 355.044 579.223 358.206 579.168 361.606C575.546 366.105 571.924 370.605 568.54 375.318C568.111 375.794 568.822 376.435 569.251 375.959C572.727 373.052 575.729 369.718 578.945 366.147C578.89 369.546 578.835 372.946 578.994 376.108C580.174 390.536 575.516 401.433 566.343 412.575C562.292 417.551 557.055 421.459 553.479 426.862C550.094 431.575 549.013 437.069 546.34 442.422C541.185 452.44 532.855 457.875 524.854 465.33C514.901 474.477 506.179 485.594 496.226 494.741C491.035 499.552 484.16 502.417 478.212 505.684C480.132 507.844 481.601 510.029 483.521 512.189C487.325 511.303 491.389 511.082 495.171 509.744C504.969 506.493 512.45 497.708 519.785 490.515C529.715 480.917 542.83 471.599 550.626 460.079C559.042 447.393 563.372 434.476 573.426 422.833C580.264 414.762 588.128 404.597 590.765 394.036C592.275 388.067 591.957 381.743 591.423 375.658C590.867 369.121 591.903 362.724 591.562 355.95C591.471 354.143 591.165 352.574 590.86 351.006C593.839 347.221 596.795 342.984 599.773 339.198C601.466 336.842 603.158 334.485 604.873 332.581C607.336 336.523 610.916 340.178 614.497 343.832C616.157 345.327 617.128 346.633 618.337 348.152C613.552 352.036 608.552 356.158 603.293 359.614C602.198 360.353 603.407 361.872 604.287 361.371C609.547 357.915 614.569 354.245 619.568 350.124C629.465 366.795 614.977 384.794 608.143 401.923C606.925 404.706 605.944 407.703 604.726 410.487C608.813 410.718 612.9 410.948 616.772 411.417L616.987 411.179C623.255 391.816 637.383 375.649 633.343 353.903C632.449 349.649 630.461 346.134 628.044 343.095C633.02 338.522 638.211 333.711 642.951 328.924C646.125 333.507 649.728 337.613 653.997 341.457C675.908 362.91 655.371 386.672 646.316 409.131C645.526 411.438 644.5 413.532 643.711 415.839C648.058 416.735 652.642 417.845 657.011 419.192C664.261 396.832 680.746 378.046 676.096 353.163C673.935 341.731 664.11 335.472 656.904 327.259C647.778 316.886 649.284 301.859 642.799 289.983C629.851 266.684 607.119 251.389 586.836 235.283C577.158 227.43 572.346 221.804 567.261 210.759C562.199 200.164 558.277 189.735 551.454 180.142C546.811 173.375 541.074 167.346 535.573 161.531C543.035 161.352 550.735 161.386 557.96 160.993C559.315 160.919 559.415 158.423 557.846 158.734C549.504 159.415 541.115 159.192 532.727 158.969C520.609 147.626 506.99 137.95 493.585 128.036C485.352 121.917 478.383 113.917 470.151 107.798C464.741 103.79 458.474 100.734 452.636 97.202C440.983 90.5895 428.371 87.4259 415.905 82.6692C406.195 78.6684 393.168 80.7357 383.867 84.8649C379.657 86.679 375.944 89.372 372.445 91.8268C368.664 93.1647 365.357 94.9298 362.05 96.6948C352.836 93.5728 343.476 92.0439 333.903 90.7531C337.265 85.5883 340.627 80.4235 344.7 75.8994C345.343 75.1851 345.987 74.4707 346.63 73.7564C355.301 75.0963 363.949 75.9846 372.788 76.1831C374.38 76.323 374.029 73.8511 372.674 73.9248C364.975 73.8907 357.467 73.1669 349.937 71.9914C367.037 65.3999 384.722 52.4361 402.548 51.24C402.999 51.2154 402.999 51.2154 403.451 51.1908C409.773 50.8469 416.4 52.0716 422.713 56.0307C425.75 57.9035 428.98 59.0866 432.186 59.818C432.492 61.3865 434.772 61.7153 435.844 60.5248C441.806 62.0121 448.196 63.0231 453.797 66.3417C469.888 75.6566 482.933 87.4017 497.761 98.597C502.933 102.392 508.748 105.472 514.135 109.029C520.447 112.988 524.547 117.973 530.002 122.885C543.758 135.271 556.406 143.641 566.946 159.598C578.503 177.765 581.37 203.198 597.52 218.171C607.481 227.14 618.774 235.583 629.356 243.386C642.501 252.635 651.367 262.343 661.702 274.236C672.037 286.128 674.344 295.966 677.828 311.175C680.678 322.796 687.861 330.557 696.422 338.697C721.89 363.353 698.138 390.687 687.672 416.618C686.262 420.092 685.09 423.779 683.68 427.252C688.524 429.027 693.605 431.015 698.449 432.789C698.832 431.41 699.453 430.244 699.836 428.864C708.258 402.817 727.317 381.174 721.987 351.799C719.497 338.347 708.295 331.71 699.881 321.978C689.308 309.872 691.153 292.561 683.673 278.928C668.737 252.114 642.493 234.519 619.15 216.088C607.834 207.193 602.502 200.236 596.446 187.885C590.841 175.508 585.948 163.773 578.13 152.423C560.339 127.349 535.924 110.108 511.271 92.6537C501.639 85.7049 493.698 76.3995 484.28 69.2125C477.922 64.35 470.729 60.8916 463.965 56.957C450.437 49.0878 435.782 45.809 421.679 40.0091C410.591 35.6303 395.52 37.5824 384.887 42.2368C380.011 44.3137 375.869 47.4829 371.49 50.4385C360.169 54.9039 349.39 61.1515 340.509 69.1075C340.509 69.1075 340.272 68.8939 340.057 69.132C331.126 67.1269 321.858 67.4046 312.927 65.3995C309.958 64.8816 306.729 63.6986 303.522 62.9672C313.635 56.9823 323.839 52.8041 333.737 47.0573ZM546.064 589.63C545.612 589.654 545.398 589.892 544.969 590.368C536.211 596.28 527.69 602.404 520.141 609.835C518.357 610.385 517.025 610.91 515.693 611.436C508.819 614.3 501.708 616.952 494.811 619.365C497.959 614.438 501.321 609.274 504.943 604.774C510.28 598.369 515.64 592.417 520.266 585.372C524.7 579.016 527.971 572.045 531.242 565.073C542.518 559.705 553.793 554.336 563.058 545C573.632 534.688 585.72 527.463 595.108 516.083C604.71 504.465 600.989 489.042 610.806 477.185C615.5 471.495 622.159 468.869 627.588 464.271C632.135 460.174 636.852 454.935 640.903 449.96C642.189 448.531 643.453 446.651 644.502 445.008C648.872 446.356 653.004 447.49 656.945 449.313C659.723 450.521 662.715 451.49 665.707 452.46C665.73 452.912 665.967 453.125 666.227 453.79C666.724 454.669 667.244 455.999 667.741 456.878C659.471 467.971 649.234 476.001 639.778 486.026C635.919 490.312 629.61 495.411 627.152 500.526C623.903 507.95 625.905 516.219 621.754 523.691C613.045 539.564 595.516 546.631 583.938 559.489C572.575 572.109 559.201 580.763 546.064 589.63ZM416.264 655.567C420.538 646.05 424.813 636.533 429.325 627.23C430.16 625.826 427.596 624.38 426.999 625.998C422.058 635.777 417.592 645.984 413.126 656.191C401.69 658.398 389.95 659.037 378.118 657.869C382.461 649.707 386.566 641.331 390.887 632.717C399.726 632.916 408.498 631.759 415.303 627.54C422.1 627.623 431.118 622.377 436.4 619.372C445.226 614.816 451.873 607.434 460.225 602.451C457.743 607.115 455.476 611.541 452.994 616.205C448.222 624.843 442.976 633.054 437.753 641.717C436.083 644.525 434.414 647.333 432.958 649.903C427.202 652.481 421.637 654.369 416.264 655.567ZM315.923 627.737C319.882 620.955 324.056 613.934 328.016 607.152C333.594 610.019 336.531 614.388 340.846 619.135C346.584 625.164 353.019 627.078 360.121 628.73C356.636 635.939 352.913 642.935 348.976 650.169C338.655 643.031 330.861 632.133 317.537 628.329C317.063 627.902 316.611 627.926 315.923 627.737ZM267.499 646.223C266.641 647.175 265.569 648.366 264.712 649.318C256.593 645.457 248.046 642.073 239.712 638.45C244.215 633.45 248.48 628.236 252.293 623.046C256.686 624.845 260.864 626.883 264.805 628.706C268.531 630.768 272.472 632.592 276.627 634.177C273.671 638.414 270.929 642.413 267.499 646.223ZM269.495 613.958C266.931 612.513 264.391 611.519 261.85 610.525C266.499 603.931 271.17 597.789 276.055 591.409C276.27 591.171 276.27 591.171 276.484 590.933C277.647 591.549 279.262 592.141 280.425 592.757C286.478 596.051 293.173 598.63 299.609 600.545C295.412 607.114 290.978 613.469 286.544 619.824C286.33 620.063 286.115 620.301 286.115 620.301C280.628 619.24 275.096 617.277 269.495 613.958ZM239.131 599.985C244.469 593.581 249.569 586.963 254.454 580.583C260.529 584.328 267.462 587.121 274.181 590.153C273.109 591.343 272.251 592.296 271.416 593.7C267.151 598.914 263.338 604.103 259.31 609.531C254.229 607.542 249.385 605.768 244.518 603.542C242.429 602.523 240.554 601.266 239.131 599.985ZM148.892 538.997C148.034 539.949 147.391 540.664 146.533 541.616C141.461 535.325 136.841 529.009 131.77 522.718C134.771 519.385 138.247 516.478 139.962 514.573C142.535 511.716 144.894 509.097 147.466 506.239C150.335 509.254 153.227 512.719 155.667 516.21C157.632 519.273 159.384 522.575 160.683 525.901C156.824 530.187 152.751 534.711 148.892 538.997ZM199.92 459.908C203.997 464.441 208.503 468.499 212.152 473.509C207.221 478.985 202.053 484.248 197.099 489.273C195.37 486.423 193.19 483.598 190.773 480.559C187.881 477.093 184.775 473.866 182.121 470.613C187.098 466.04 192.289 461.229 197.028 456.442C197.525 457.321 198.711 458.388 199.92 459.908ZM184.011 323.998C184.797 312.632 187.001 293.491 192.744 286.158C196.581 281.421 201.333 281.389 206.424 279.074C213.084 276.447 218.535 272.301 225.217 270.126C232.78 267.45 241.665 268.552 248.731 264.997C254.702 262.181 260.367 257.797 266.292 254.078C268.212 256.238 270.133 258.398 272.29 260.771C275.87 264.426 280.162 268.722 284.837 271.638C277.68 273.386 272.704 277.959 265.31 279.494C255.206 281.175 245.272 281.716 235.26 285.204C223.487 289.694 205.246 296.121 206.212 310.788C206.904 320.035 211.684 329.512 214.16 338.209C217.179 348.688 217.397 357.508 223.08 366.936C227.745 374.155 234.103 379.017 238.746 385.785C243.152 392.339 244.351 398.161 250.969 403.689C259.699 410.687 262.736 412.559 262.494 425.707C262.439 429.106 261.458 432.104 261.403 435.503C261.667 445.226 266.387 449.046 271.764 456.905C278.847 467.163 287.025 476.682 294.774 486.677C301.551 495.367 308.894 506.29 319.102 511.169C327.22 515.03 337.529 517.413 346.459 519.418C354.25 521.259 362.209 521.958 370.315 521.065C379.145 525.566 389.869 522.718 399.78 521.726C401.801 521.39 403.607 521.292 405.651 521.407C407.019 526.088 408.364 530.317 409.495 534.785C410.06 537.019 410.626 539.252 411.428 541.7C408.527 542.537 405.175 543.398 402.511 544.449C390.715 548.488 381.073 545.842 369.556 541.939C359.179 538.201 351.499 529.561 340.333 528.13C331.899 527.004 320.87 528.283 313.723 525.728C308.642 523.74 299.529 518.122 294.808 514.302C290.087 510.483 286.507 506.828 280.952 504.413C279.1 503.608 277.937 502.992 276.559 502.614C276.965 501.686 277.394 501.21 277.8 500.282C278.421 499.116 277.02 498.286 276.14 498.787C276.523 497.407 275.981 495.625 275.009 494.32C267.16 486.821 259.739 478.846 252.319 470.871C244.164 461.804 246.6 456.236 244.439 444.805C240.513 425.317 232.244 413.992 218.634 400.013C214.58 395.931 212.523 391.061 208.874 386.051C202.786 377.551 194.403 363.967 191.17 353.726C187.982 344.388 182.719 338.787 183.787 328.539C183.765 328.087 183.742 327.635 183.719 327.184L184.171 327.159C185.954 326.609 185.817 323.899 184.011 323.998ZM118.047 376.272C120.532 380.666 122.804 385.298 124.6 389.503C120.13 390.652 115.66 391.801 111.213 393.401C106.98 394.764 102.984 396.34 98.7511 397.703C96.9087 392.594 94.6148 387.511 92.1064 382.665C97.6941 381.229 103.282 379.793 108.869 378.357C111.985 377.282 114.886 376.444 118.047 376.272C118.024 375.821 118.024 375.821 118.047 376.272ZM53.6683 388.153C50.0197 383.143 46.6082 378.347 43.1968 373.551C44.9803 373.001 47.0009 372.664 48.8072 372.566C54.8692 371.557 60.9767 371.451 67.2759 370.656C69.5337 370.533 71.7688 369.958 73.7894 369.622C74.852 372.734 76.1289 375.609 77.8802 378.91C78.6145 380.003 79.1343 381.333 79.8686 382.425C71.1428 384.485 62.8685 386.52 54.3798 388.794C53.9283 388.818 53.9055 388.367 53.6683 388.153ZM81.3827 385.513C77.2181 388.231 70.6818 388.813 66.4033 389.272C65.9517 389.296 65.9517 389.296 65.5002 389.321C70.6362 387.909 76.0095 386.711 81.3827 385.513ZM108.044 375.458C102.242 377.132 96.6543 378.568 90.6151 380.029C88.6039 376.062 86.3783 372.334 84.3671 368.367C90.2147 367.596 96.0395 366.374 101.887 365.603C105.477 364.954 109.304 364.52 112.894 363.872C113.742 367.222 114.804 370.335 116.555 373.636C113.632 374.022 110.945 374.621 108.044 375.458ZM82.2875 363.046C80.1624 356.821 80.7695 350.9 79.9992 344.601C79.3882 341.464 79.2288 338.302 78.3807 334.952C87.1976 334.699 96.2517 334.659 105.306 334.619C105.757 334.595 105.757 334.595 106.209 334.57C107.08 338.373 108.188 342.388 108.844 346.429C110.021 351.8 110.937 356.505 112.305 361.186C108.05 362.097 103.557 362.794 99.0638 363.492C93.6678 364.238 88.7233 364.96 83.5645 365.92C83.0446 364.589 82.7846 363.924 82.2875 363.046ZM73.324 310.997C71.199 304.772 67.8786 301.782 67.0854 295.032C67.0626 294.58 67.0399 294.128 67.0171 293.677C76.7827 294.278 86.9543 293.951 96.6516 293.197C94.6671 298.74 94.2516 303.971 96.8055 309.719C97.5625 311.263 98.3196 312.807 99.0766 314.351C94.7981 314.811 90.3053 315.508 85.7896 315.753C82.1771 315.95 78.8017 316.36 74.9748 316.795C74.6693 315.226 74.1039 312.992 73.324 310.997ZM87.8281 199.021C101.726 200.756 115.624 202.491 129.522 204.226C124.071 208.372 118.406 212.756 112.458 216.024C99.3167 215.833 86.1984 216.093 73.103 216.806C77.3226 210.689 81.9939 204.547 87.8281 199.021ZM321.268 87.1378C319.676 86.998 317.847 86.6446 316.041 86.7428C301.928 85.246 288.391 81.6798 274.662 78.8035C275.971 77.8265 277.066 77.0875 278.375 76.1105C285.135 70.9874 292.629 66.9565 300.147 63.3773C306.345 65.0781 312.758 66.5409 319.149 67.552C325.516 68.1114 331.692 69.3606 338.082 70.3717C337.439 71.086 336.559 71.5868 335.701 72.5393C330.962 77.3261 326.008 82.351 321.268 87.1378ZM271.592 80.782C285.321 83.6584 298.859 87.2246 312.971 88.7214C315.014 88.8367 316.844 89.1901 319.124 89.5189C313.741 95.0201 308.336 100.07 302.242 104.93C295.163 103.73 288.298 102.292 281.434 100.854C272.051 98.873 262.692 97.3441 253.118 96.0533C259.189 90.7411 265.498 85.6425 271.592 80.782ZM478.458 155.806C481.326 158.821 484.013 158.222 488.077 158.001C495.088 157.846 502.167 159.046 509.2 159.343C512.147 159.409 515.545 159.45 518.492 159.516C525.347 165.258 531.727 170.572 537.533 177.955C525.533 177.929 513.08 177.927 500.82 177.235C493.276 171.305 485.281 165.399 477.522 159.707C470.238 154.442 464.692 147.724 457.623 142.221C452.925 138.853 447.584 136.2 442.457 133.308C432.441 127.739 421.659 124.929 411.045 120.977C402.734 117.806 391.705 119.085 383.736 122.689C380.192 124.241 376.908 126.457 373.624 128.674C363.634 132.614 354.639 138.312 347.112 146.194C342.158 151.219 337.87 155.981 332.894 160.554C332.657 160.341 332.419 160.127 331.945 159.7C324.606 157.835 317.267 155.97 309.714 154.342C315.594 149.72 321.711 145.311 327.353 140.475C336.901 132.257 341.299 120.695 349.446 111.647C350.303 110.694 351.161 109.742 352.256 109.003C367.381 103.651 383.52 91.4508 399.539 90.353L399.991 90.3284C405.647 90.2472 411.134 91.3074 416.735 94.6259C419.298 96.0716 422.076 97.2792 424.831 98.0351C425.136 99.6037 426.942 99.5054 428.037 98.7665C433.31 100.065 438.56 100.912 443.686 103.803C457.903 111.861 468.836 122.136 481.789 132.075C486.273 135.68 491.139 137.906 496.051 141.036C501.438 144.593 505.041 148.699 509.785 152.97C511.445 154.465 513.105 155.96 514.765 157.455C507.969 157.371 501.387 157.05 494.805 156.729C489.578 156.334 483.539 157.795 478.435 155.355C478.604 154.213 478.198 155.141 478.458 155.806ZM629.707 299.753C630.779 298.563 628.882 296.854 627.81 298.045C622.496 304.901 617.181 311.757 612.104 318.827C610.17 311.912 609.117 304.496 605.852 298.107C594.656 278.109 575.435 265.115 557.999 251.57C549.743 245 545.643 240.014 541.315 230.512C537.01 221.462 533.845 212.576 527.542 204.314C520.719 194.721 512.396 186.796 503.88 179.559C504.783 179.51 505.472 179.699 506.375 179.65C517.281 180.416 528.593 180.253 539.691 180.329C540.662 181.635 541.634 182.941 542.628 184.698C552.693 200.229 554.949 222.524 568.965 235.575C577.503 243.263 587.396 250.877 596.792 257.612C608.299 265.818 615.957 274.006 624.869 284.618C633.995 294.991 635.783 303.499 638.938 316.688C639.786 320.038 641.063 322.913 642.554 325.549C637.838 330.787 632.647 335.599 627.456 340.41C624.35 337.182 621.029 334.193 617.923 330.965C615.766 328.591 614.252 325.503 612.975 322.629C618.672 314.393 624.178 306.847 629.707 299.753ZM598.948 336.3C596.398 339.609 593.848 342.918 591.084 346.465C589.196 340.453 586.044 336.322 581.967 331.789C587.45 323.791 592.696 315.58 597.705 307.155C599.502 311.36 600.418 316.066 601.832 321.65C602.42 324.335 603.437 326.544 604.454 328.754C602.547 331.348 600.64 333.943 598.948 336.3ZM572.916 340.886C564.906 352.644 557.799 364.353 549.551 375.898C549.073 366.413 544.713 360.762 540.002 352.64C546.206 340.98 553.359 330.174 560.274 319.155C563.189 323.073 565.889 327.228 568.397 332.074C569.888 334.71 571.594 337.108 573.537 339.72C573.345 340.41 573.131 340.648 572.916 340.886ZM461.243 398.138C460.815 398.614 461.526 399.255 461.955 398.779C464.765 396.135 467.552 393.04 470.102 389.731C470.499 393.106 469.992 396.53 468.56 399.552C461.498 412.164 450.099 419.578 436.428 422.359C428.583 423.918 424.655 426.849 418.347 431.948C413.562 435.832 409.725 440.569 404.183 442.909C396.429 446.274 384.045 447.627 375.611 446.501C364.66 444.832 352.468 445.495 343.478 437.832C332.354 428.247 328.227 413.752 327.284 399.537C326.272 383.967 334.78 373.088 322.785 359.701C316.053 351.915 305.225 348.201 296.778 342.32C292.791 339.593 283.984 335.543 287.414 331.733C290.63 328.162 297.778 330.717 302.508 330.233C311.302 329.528 318.13 325.76 325.647 322.181C336.472 316.836 346 317.224 356.961 314.59C369.04 311.668 374.815 300.484 381.799 290.82C382.036 291.034 382.25 290.795 382.465 290.557C385.343 289.269 385.32 288.817 388.358 290.69C393.699 293.343 389.589 292.661 389.603 297.415C389.502 299.912 388.047 302.482 387.732 305.217C387.317 310.447 388.11 317.198 392.808 320.565C397.268 323.72 402.641 322.521 407.609 322.251C425.48 321.958 431.728 333.62 441.182 346.014C444.571 350.358 449.857 356.411 454.952 363.154C450.54 369.961 446.603 377.195 442.192 384.002C441.841 381.531 441.276 379.297 440.259 377.088C437.659 370.435 428.501 363.914 422.877 360.144C414.69 354.928 408.345 354.82 403.588 345.794C396.369 332.826 382.672 326.099 368.245 327.336C363.255 327.155 357.667 328.591 352.937 329.075C346.852 329.632 341.648 329.689 336.863 333.572C333.172 336.717 331.074 340.001 332.679 344.896C333.787 348.912 341.669 352.559 344.086 355.598C351.315 364.263 351.452 366.973 349.175 375.702C346.323 386.5 335.133 407.036 342.002 417.532C347.164 425.63 358.691 425.229 366.718 427.284C374.746 429.338 381.724 433.034 389.999 430.999C399.39 428.677 406.206 420.154 415.078 416.501C421.737 413.874 427.562 412.652 433.702 408.694C440.056 404.499 442.807 396.197 442.611 387.829C444.902 383.855 446.977 380.119 449.053 376.383C451.343 372.409 453.633 368.434 455.923 364.46C461.017 371.203 465.92 378.635 467.854 385.55C466.727 390.141 463.985 394.139 461.243 398.138ZM495.638 307.952C501.69 311.246 507.528 314.778 512.554 320.166C507.805 329.256 502.345 337.705 496.647 345.94C495.393 343.518 493.902 340.881 491.767 338.96C488.661 335.732 484.958 334.122 481.637 331.132C487.618 324.013 493.101 316.016 495.638 307.952ZM464.937 350.156C464.102 351.56 463.03 352.751 462.195 354.155C460.038 351.782 457.881 349.408 455.724 347.034C448.517 338.821 442.653 325.78 432.874 320.424C428.221 317.96 422 315.807 416.75 314.96C414.469 314.632 412.449 314.968 410.405 314.853C408.148 314.976 406.341 315.074 404.321 315.41C401.621 311.254 398.898 306.647 396.198 302.491C395.213 296.431 402.617 290.593 397.093 284.327C394.699 281.74 391.73 281.222 389.043 281.821C388.783 281.156 388.094 280.967 387.428 281.229C386.119 282.206 385.047 283.397 383.738 284.374C382.643 285.113 382 285.827 381.142 286.78C380.928 287.018 380.714 287.256 380.736 287.708C377.283 291.066 374.304 294.851 370.185 298.472C363.042 304.974 358.64 307.478 348.706 308.019C342.835 308.338 338.297 308.132 332.495 309.806C319.322 313.467 308.26 318.597 294.431 318.218C286.946 317.945 279.392 316.318 275.715 324.217C266.5 343.514 307.113 354.213 315.956 363.469C326.697 374.433 320.078 391.324 319.666 405.613C319.186 418.547 321.233 427.72 329.005 438.167C334.596 445.788 341.023 452.006 350.642 454.2C360.262 456.394 373.686 457.702 383.62 457.161C385.641 456.825 387.899 456.702 389.919 456.366C389.513 457.294 389.344 458.435 389.864 459.766C393.581 466.13 395.109 473.973 396.399 481.602C387.03 484.376 386.159 480.574 379.294 479.136C372.904 478.125 365.419 477.853 359.22 476.152C353.022 474.451 347.85 470.656 342.08 468.479C336.31 466.302 330.608 465.48 325.007 462.161C315.917 456.995 312.223 451.081 309.273 441.957C308.21 438.845 307.408 436.398 305.893 433.31C302.674 427.824 297.05 424.053 295.591 417.566C294.109 410.626 296.659 407.317 297.672 400.469C298.831 392.027 297.541 384.398 294.207 376.654C285.98 357.174 278.163 345.823 260.557 333.421C254.459 329.223 241.565 324.943 252.139 314.63C256.664 310.082 270.539 311.365 276.601 310.356C285.35 308.748 295.759 308.634 304.247 306.361C311.404 304.613 318.83 299.227 325.207 295.484C333.345 290.738 342.025 287.775 349.948 283.268C368.007 273.228 377.378 248.035 395.345 236.188C395.583 236.402 395.797 236.164 396.034 236.377C403.428 234.843 409.353 231.124 412.938 243.836C413.786 247.187 412.23 252.253 412.627 255.629C413.26 259.217 415.226 262.281 416.311 265.845C418.176 271.405 418.71 277.49 420.789 282.811C422.937 289.488 426.891 296.066 432.775 300.502C442.645 307.664 454.103 305.909 462.755 315.855C467.804 321.694 470.663 329.012 474.617 335.59C471.492 340.968 468.085 345.23 464.937 350.156ZM432.243 402.207C431.814 402.683 432.74 403.085 432.954 402.847C433.597 402.133 434.241 401.419 434.884 400.704C434.478 401.632 434.072 402.56 433.429 403.274C431.736 405.631 425.957 407.757 423.507 408.569C418.394 410.433 413.235 411.393 408.359 413.47C401.485 416.334 392.795 423.601 385.502 422.639C380.489 422.006 375.317 418.211 370.259 416.674C365.889 415.327 360.662 414.932 357.127 412.18C350.769 407.318 354.372 411.424 354.076 405.553C353.101 395.189 356.076 382.346 357.358 371.86C358.449 362.063 356.201 357.883 349.086 351.476C343.156 346.138 337.738 346.432 345.287 339.002C351.336 333.238 351.404 334.593 358.821 333.51C361.744 333.125 364.668 332.739 368.044 332.329C375.337 333.291 381.704 333.851 388.04 338.261C395.538 343.288 396.614 351.156 402.137 357.422C410.032 365.824 424.053 365.514 431.802 375.51C434.717 379.427 436.787 389.052 436.033 396.566C434.77 398.446 433.506 400.326 432.243 402.207ZM463.404 355.675C465.717 352.152 468.03 348.629 470.794 345.082C472.272 342.964 473.965 340.607 476.109 338.226C477.317 339.746 478.289 341.051 479.497 342.571C484.76 348.172 485.823 351.285 488.851 357.461C485.06 363.102 481.27 368.743 477.479 374.384C473.739 367.567 468.667 361.276 463.404 355.675ZM497.45 348.388C503.362 339.914 509.037 331.227 513.786 322.137C515.469 324.083 516.723 326.506 517.977 328.929C519.774 333.134 521.808 337.552 523.605 341.757C519.33 351.274 515.293 361.004 509.855 369.905C506.872 364.632 503.224 359.623 500.478 354.564C499.484 352.806 498.467 350.597 497.45 348.388ZM517.485 314.689C518.918 311.667 520.113 308.432 521.309 305.197C521.692 303.817 519.84 303.012 519.457 304.392C518.476 307.389 517.043 310.411 515.825 313.194C514.877 312.34 514.142 311.248 513.431 310.607C506.553 304.414 501.166 300.858 492.833 297.235C480.559 291.788 472.044 284.552 464.893 272.939C459.21 263.511 455.119 254.223 451.649 243.769C459.011 246.085 467.873 246.736 475.189 248.149C478.61 248.643 482.031 249.136 485.644 248.939C486.186 250.721 486.943 252.265 487.938 254.023C493.903 264.568 502.213 267.739 511.778 273.333C519.705 277.884 524.585 284.865 531.655 290.368C535.901 293.76 539.673 296.725 543.23 299.928C538.55 310.373 533.418 320.842 528.285 331.312C525.494 325.35 522.037 319.65 517.485 314.689ZM529.968 333.258C535.1 322.789 540.233 312.32 545.128 301.637C547.737 303.986 550.368 306.786 552.785 309.825C554.965 312.65 557.146 315.476 559.088 318.087C554.271 325.822 549.24 333.795 544.422 341.53C542.538 344.576 540.44 347.861 538.556 350.907C535.336 345.421 532.545 339.459 529.777 333.948C529.991 333.71 529.968 333.258 529.968 333.258ZM573.766 321.818C571.089 318.114 568.412 314.41 565.735 310.706C569.074 305.089 572.391 299.021 575.041 293.216C575.661 292.05 573.573 291.031 572.952 292.197C570.302 298.003 567.414 303.595 564.289 308.973C559.692 303.109 554.406 297.056 548.736 292.382C550.766 287.743 552.345 283.128 553.901 278.061C554.284 276.682 552.218 276.115 551.62 277.733C550.256 282.109 548.44 286.511 546.839 290.674C534.292 279.808 522.648 268.892 509.909 258.715C494.11 246.214 495.365 226.218 484.634 210.951C496.748 213.236 508.694 216.662 519.71 210.628C527.404 224.023 529.884 241.777 541.291 252.479C548.643 259.099 557.113 265.432 565.108 271.338C574.741 278.287 581.427 285.169 589.131 294.261C592.022 297.727 594.225 301.004 595.762 304.543C590.776 313.42 585.078 321.655 579.618 330.105C578.126 327.468 575.969 325.095 573.766 321.818ZM341.892 110.02C331.985 120.069 323.194 129.832 312.101 138.814C306.435 143.198 300.984 147.345 295.296 151.277C286.84 149.699 278.835 148.096 270.378 146.518C275.784 141.469 281.426 136.633 287.092 132.249C288.187 131.51 289.281 130.771 290.353 129.58C298.573 130.945 306.34 132.334 314.56 133.698C316.389 134.052 316.918 131.079 315.326 130.939C308.033 129.977 300.716 128.564 293.638 127.364C301.278 121.74 308.681 115.902 316.299 109.827C323.83 111.002 331.337 111.726 339.06 112.212C341.103 112.327 340.729 109.403 338.923 109.502C332.341 109.18 325.737 108.407 319.346 107.396C319.561 107.158 319.561 107.158 319.775 106.92C325.203 102.322 329.209 96.4432 332.999 90.8022C341.885 91.904 351.244 93.4329 359.769 96.366C352.94 100.134 347.061 104.757 341.892 110.02ZM277.397 164.479C274.35 166.909 271.325 169.791 268.064 172.46C260.985 171.26 253.714 170.749 246.658 170.001C245.518 169.836 244.377 169.672 243.023 169.746C251.543 163.621 259.782 156.379 267.568 149.162C275.573 150.765 283.792 152.129 291.797 153.732C286.99 157.164 282.182 160.596 277.397 164.479ZM250.262 97.7938C251.402 97.9582 252.543 98.1226 253.683 98.287C263.494 99.7914 273.351 102.199 283.185 104.155C288.22 105.24 293.708 106.3 298.957 107.147C291.34 113.222 283.462 118.633 275.607 124.495C270.357 123.648 265.322 122.563 260.072 121.717C251.164 120.163 242.233 118.158 233.325 116.605C230.355 116.087 227.623 115.783 224.654 115.265C233.672 110.019 242.193 103.894 250.262 97.7938ZM228.449 118.681C237.808 120.21 246.953 121.977 256.336 123.958C261.586 124.805 267.073 125.865 272.323 126.712C268.61 129.404 265.134 132.311 261.421 135.004C258.159 137.672 254.898 140.341 251.873 143.222L251.422 143.247C238.619 140.773 225.815 138.299 212.629 137.205C206.95 136.835 201.271 136.464 195.784 135.404C203.616 129.09 211.686 122.99 220.489 117.982C223.199 117.835 225.931 118.139 228.449 118.681ZM194.092 137.761C200.053 139.248 206.398 139.356 212.314 139.94C224.812 140.845 236.926 143.13 249.278 145.628C241.897 151.917 234.517 158.207 226.379 162.952C223.952 164.216 221.526 165.48 219.076 166.293C215.204 165.824 211.309 164.904 207.436 164.435C194.656 162.413 182.304 159.914 169.501 157.441C177.547 150.889 185.357 144.123 193.403 137.572C193.403 137.572 193.64 137.785 194.092 137.761ZM212.157 168.254C212.157 168.254 212.394 168.468 212.608 168.23C210.373 168.804 207.924 169.617 205.451 169.978C205.451 169.978 205.237 170.216 205 170.002C207.349 171.686 210.003 174.939 211.449 176.672C213.346 178.38 215.244 180.088 216.927 182.035C220.731 181.148 224.749 180.024 228.508 178.234C232.267 176.445 235.788 174.442 239.31 172.439C242.042 172.743 244.774 173.047 247.506 173.351C253.422 173.935 259.338 174.519 265.254 175.103C262.658 177.509 259.611 179.939 256.778 182.131C260.956 184.169 265.157 186.658 269.121 188.933C273.025 185.55 277.144 181.929 281.049 178.547C281.738 178.736 282.189 178.711 282.878 178.9C284.493 179.492 285.259 176.733 283.645 176.141C288.836 171.33 294.027 166.518 299.478 162.372C302.096 160.418 304.5 158.702 306.904 156.986C315.146 158.802 323.151 160.405 331.416 162.673C328.606 165.317 325.582 168.199 322.083 170.653C312.276 178.207 301.971 184.881 292.401 192.648C289.568 194.841 287.187 197.008 284.592 199.414C287.652 201.738 290.475 203.849 293.536 206.174C299.37 200.648 305.204 195.122 311.536 190.475C318.725 184.876 325.936 179.728 333.103 173.677C333.385 174.794 333.431 175.697 333.714 176.814C335.624 183.277 336.846 189.551 338.757 196.014C339.04 197.131 339.322 198.248 339.605 199.365C333.534 204.677 326.751 209.349 319.065 214.069C315.995 216.048 313.162 218.24 310.329 220.432C313.65 223.422 317.422 226.387 320.742 229.377C329.071 223.942 336.903 217.628 343.381 211.388C345.957 217.588 348.963 223.313 353.921 227.345C354.158 227.559 354.395 227.773 355.084 227.962C353.131 229.653 351.179 231.344 349.227 233.036C344.871 236.443 341.226 240.491 337.129 244.563C340.213 247.339 343.081 250.354 346.165 253.13C346.808 252.415 347.451 251.701 348.094 250.987C354.786 244.509 362.878 238.86 369.073 231.503C366.633 228.013 364.859 224.26 363.085 220.506C362.013 221.697 360.704 222.674 359.632 223.865C357.032 217.212 353.958 210.133 351.122 203.268C352.171 201.625 353.458 200.197 354.507 198.555C353.207 195.228 352.144 192.116 351.059 188.552C349.773 189.98 348.486 191.409 347.414 192.6C346.635 190.604 346.069 188.37 345.526 186.588C344.136 181.456 342.179 174.089 338.982 169.055C340.269 167.626 341.555 166.197 342.604 164.555C342.322 163.438 341.587 162.346 341.305 161.229C340.288 159.02 343.832 157.468 345.063 159.44C345.3 159.653 345.323 160.105 345.56 160.318C348.494 155.63 351.212 151.179 354.857 147.131C355.5 146.417 356.358 145.465 357.216 144.512C370.343 139.948 384.078 129.464 397.839 128.489L398.291 128.464C403.258 128.194 407.842 129.304 412.732 131.981C415.058 133.214 417.361 133.994 419.665 134.775C419.947 135.891 421.539 136.031 422.419 135.53C427.003 136.64 431.565 137.298 435.765 139.786C447.893 146.826 457.38 155.368 468.222 163.836C471.993 166.801 476.171 168.838 480.372 171.327C482.247 172.584 483.907 174.079 485.567 175.574C482.835 175.27 480.317 174.727 477.585 174.423C476.399 173.355 475.473 172.953 473.713 173.954C472.832 174.455 473.115 175.572 474.041 175.974C478.625 177.084 483.4 177.503 488.176 177.923C489.362 178.991 490.785 180.272 491.993 181.791C502.192 190.974 511.327 197.044 519.167 208.846C507.7 214.904 494.523 209.507 482.171 207.009C479.302 203.994 476.219 201.218 472.47 198.705C462.126 191.115 456.443 181.687 447.837 172.644C439.705 164.029 428.708 161.457 417.519 159.574C414.787 159.27 410.586 156.781 407.639 156.715C403.553 156.484 399.771 157.822 395.99 159.16C380.468 161.137 367.974 169.289 357.017 180.981C358.271 183.404 359.288 185.613 360.542 188.036C363.284 184.037 366.262 180.252 370.167 176.869C374.738 173.224 379.331 170.03 383.733 167.526C384.207 167.953 384.659 167.929 385.348 168.118C390.529 167.609 395.62 165.294 401.039 165C407.123 164.442 406.503 165.608 411.776 166.907C426.668 170.399 436.187 175.09 445.641 187.483C449.527 192.706 453.39 197.478 458.134 201.749C460.268 203.671 462.617 205.355 465.181 206.801C462.945 207.375 460.733 208.401 458.544 209.879C458.115 210.355 458.375 211.02 459.041 210.758C462.156 209.682 465.294 209.059 468.241 209.125C470.353 210.595 472.25 212.304 473.719 214.488C480.282 223.416 480.896 235.611 484.367 246.065C480.065 246.072 475.267 245.201 471.157 244.519C468.877 244.19 456.334 242.381 450.349 240.443C447.071 229.298 444.435 217.44 440.276 206.797C437.654 199.693 430.516 192.835 424.226 189.327C423.063 188.711 421.686 188.333 420.308 187.955C404.974 180.184 390.719 189.338 379.265 200.152C375.812 203.51 372.856 207.747 370.114 211.745C371.437 215.523 372.974 219.063 374.296 222.84C381.166 210.918 388.511 199.422 399.764 193.602C399.764 193.602 399.764 193.602 400.001 193.815C417.94 194.877 429.152 197.211 432.672 217.627C434.527 227.49 438.121 235.899 441.309 245.237C443.479 252.365 446.79 259.658 450.315 266.712C444.942 267.911 439.569 269.109 434.15 269.403C432.795 269.477 432.672 271.522 433.812 271.686C439.728 272.27 445.768 270.81 451.57 269.135C455.806 276.83 460.924 284.025 466.898 290.267C474.319 298.242 483.792 302.029 492.86 306.744C490.729 313.88 486.058 320.022 481.816 325.687C480.744 326.878 480.123 328.044 479.051 329.235C478.577 328.807 478.317 328.142 477.605 327.502C468.388 315.322 465.246 306.888 451.503 299.257C441.962 294.114 432.771 291.444 429.707 280.062C427.796 273.599 426.811 267.538 424.9 261.075C421.43 250.621 425.285 237.277 414.749 230.377C407.963 225.991 404.204 227.781 399.396 231.212C388.098 236.13 377.378 248.035 370.065 255.679C366.184 259.514 362.753 263.323 359.3 266.682C360.012 267.322 360.746 268.414 361.457 269.055C363.615 271.429 360.827 274.524 358.241 272.627C357.293 271.773 356.13 271.157 355.181 270.302C350.204 274.876 344.516 278.808 337.19 281.698C328.319 285.351 319.447 289.003 310.338 292.443C291.882 299.108 270.262 296.887 251.615 304.242C241.626 308.182 232.429 318.873 239.749 329.344C245.601 337.631 258.044 341.936 265.587 347.866C275.243 355.267 277.391 361.943 282.69 372.751C285.718 378.927 290.27 383.888 290.42 391.352C290.525 397.914 286.734 403.555 285.224 409.525C283.951 415.708 285.004 423.124 287.558 428.872C289.591 433.291 293.103 435.591 295.352 439.771C297.6 443.951 297.636 449.157 299.219 453.6C302.598 462.248 308.504 467.135 316.432 471.686C325.759 477.066 336.733 479.187 347.11 482.925C357.724 486.876 369.487 486.689 380.27 489.499C386.683 490.962 391.007 491.406 397.046 489.946C397.634 492.631 398.008 495.554 398.596 498.24C399.795 504.062 401.446 509.86 403.097 515.658C399.484 515.855 396.109 516.265 393.185 516.65C388.455 517.134 382.845 518.118 377.426 518.413C377.595 517.272 376.623 515.966 375.268 516.04C360.513 515.257 348.837 508.193 335.254 503.724C320.745 498.852 311.011 494.399 300.891 482.269C292.453 472.084 284.207 461.21 276.413 450.312C273.238 445.729 269.681 442.526 268.719 436.917C268.017 431.973 270.713 427.071 270.462 422.103C270.053 413.973 268.005 404.8 262.934 398.509C260.279 395.257 256.576 393.646 254.136 390.156C251.458 386.452 251.208 381.484 248.316 378.018C241.584 370.232 232.394 367.561 227.354 357.419C224.326 351.243 224.673 344.657 222.763 338.194C221.326 332.158 217.655 326.696 216.884 320.398C214.473 303.998 227.103 298.556 239.802 294.468C251.835 290.643 264.661 293.569 276.028 290.007C279.595 288.907 281.479 285.86 284.594 284.785C286.378 284.235 288.681 285.016 290.465 284.466C302.306 281.331 313.933 278.434 324.712 272.186C330.874 268.681 334.948 264.157 339.473 259.608C336.152 256.618 332.855 254.08 329.534 251.091C328.462 252.281 327.153 253.258 326.081 254.449C326.036 253.545 325.753 252.428 324.59 251.812C318.3 248.305 312.608 243.18 306.679 237.841C308.225 237.078 309.986 236.076 311.295 235.099C308.212 232.323 304.892 229.333 301.808 226.557C300.499 227.534 299.19 228.511 297.881 229.488C294.538 226.047 290.98 222.844 287.423 219.64C285.763 218.145 283.651 216.675 281.753 214.967C282.848 214.228 283.92 213.037 285.015 212.298C282.169 209.736 279.108 207.411 276.262 204.849C274.953 205.826 273.644 206.803 272.572 207.993C267.4 204.199 262.679 200.379 257.936 196.108L258.15 195.87C258.365 195.632 258.365 195.632 258.579 195.394C259.674 194.655 260.983 193.678 262.078 192.939C258.543 190.188 255.223 187.198 251.902 184.208C250.808 184.947 249.713 185.686 248.618 186.425C246.981 185.382 244.768 186.408 245.334 188.642C245.334 188.642 245.334 188.642 245.119 188.88C242.478 190.382 240.266 191.408 237.817 192.221C236.439 191.843 235.084 191.917 233.944 191.752C226.199 190.815 218.454 189.877 210.686 188.488C209.546 188.324 208.406 188.16 207.503 188.209C205.865 187.165 204.251 186.574 202.613 185.531C203.731 185.244 205.063 184.718 206.417 184.644C202.837 180.99 199.686 176.858 197.223 172.916C194.344 174.205 191.703 175.708 188.825 176.996C182.038 172.61 174.992 167.559 169.751 162.409C169.277 161.982 168.802 161.555 168.542 160.89C184.055 163.216 198.021 166.306 212.157 168.254ZM266.691 235.034C255.398 226.591 244.319 217.909 233.669 208.751C233.432 208.537 233.195 208.324 232.958 208.11C229.874 205.334 226.791 202.558 223.708 199.782C221.099 197.433 218.253 194.87 215.859 192.283C216.31 192.259 216.999 192.448 217.45 192.423C222.463 193.056 227.476 193.689 232.037 194.347C231.586 194.371 230.92 194.634 230.468 194.659C234.263 198.075 238.272 201.254 242.067 204.671C244.302 204.096 246.751 203.284 248.963 202.258C250.724 201.256 252.508 200.706 254.268 199.705C257.917 204.714 261.994 209.248 266.286 213.544C263.645 215.046 260.981 216.097 258.08 216.934C261.378 219.472 265.127 221.985 268.425 224.523C270.423 223.735 272.183 222.734 274.158 221.494C277.739 225.149 281.771 228.779 285.565 232.196C286.514 233.05 287.7 234.118 288.649 234.972C287.317 235.498 286.199 235.785 285.082 236.072C288.142 238.396 291.44 240.934 294.5 243.259C295.166 242.996 296.069 242.947 296.949 242.446C305.25 249.921 315.572 257.058 324.581 256.115C321.962 258.069 319.107 259.81 316.014 261.337C316.251 261.55 316.726 261.978 316.963 262.191C319.334 264.327 316.83 268.539 313.578 266.904C312.178 266.075 310.326 265.269 308.926 264.44C306.713 265.466 304.478 266.04 302.029 266.853C301.555 266.426 301.295 265.761 300.606 265.572C293.367 261.21 287.11 253.851 281.327 246.919C281.541 246.681 281.778 246.895 281.993 246.657C276.821 242.862 271.863 238.829 266.691 235.034ZM193.922 269.111C188.449 272.805 183.257 277.616 180.844 283.635C180.652 284.325 180.461 285.015 180.269 285.705C180.269 285.705 180.032 285.491 179.818 285.729C172.593 286.122 165.819 286.491 158.831 287.097C162.554 280.101 166.276 273.105 172.393 268.696C179.176 264.025 187.473 262.441 194.211 256.867C197.043 254.674 199.662 252.72 202.066 251.004C204.063 250.216 206.061 249.428 208.036 248.189C208.251 247.951 208.465 247.713 208.442 247.261C212.201 245.471 215.96 243.682 220.859 242.056C228.421 239.381 235.273 236.064 242.338 232.509C246.562 235.45 250.548 238.177 254.343 241.594C256.24 243.302 257.923 245.249 259.82 246.957C258.06 247.959 256.299 248.96 254.301 249.748C244.594 254.805 237.47 252.702 226.938 254.86C216.643 257.231 202.703 263.651 193.922 269.111ZM139.532 299.47C138.314 302.253 137.095 305.037 136.781 307.771C128.506 309.807 120.446 311.604 112.364 312.949C111.087 310.075 109.381 307.677 109.176 303.612C108.711 298.882 109.929 296.098 111.813 293.052C112.716 293.003 114.071 292.929 114.974 292.88C124.909 292.339 134.606 291.585 144.303 290.831C142.634 293.64 140.964 296.448 139.532 299.47ZM136.68 310.268C136.794 312.526 137.122 314.546 138.162 317.207C140.219 322.077 143.133 325.995 144.524 331.127C135.73 331.832 126.89 331.634 117.836 331.673C116.897 326.516 115.743 321.597 114.398 317.368C114.138 316.702 113.878 316.037 113.618 315.372C121.249 314.051 128.857 312.279 136.68 310.268ZM115.955 289.883C115.052 289.932 114.149 289.981 113.246 290.03C113.866 288.864 114.938 287.673 115.559 286.507C119.089 280.201 122.338 272.778 126.534 266.209C138.512 265.784 150.253 265.145 161.948 263.603C160.876 264.794 159.59 266.223 158.304 267.651C153.632 273.793 149.458 280.814 145.521 288.048C135.61 289.04 125.675 289.58 115.955 289.883ZM137.446 253.614C138.97 252.399 140.73 251.397 142.277 250.634C152.471 250.758 162.903 251.097 173.097 251.222C176.258 251.05 179.679 251.543 182.863 251.823C181.316 252.586 180.007 253.563 178.675 254.088C173.37 256.641 169.137 258.004 165.639 260.459C153.04 262.05 140.634 262.951 128.204 263.401C130.731 259.64 133.733 256.307 137.446 253.614ZM122.011 248.339C111.173 248.929 100.313 249.067 89.4527 249.205C92.6231 244.73 95.8163 240.706 100.195 237.751C109.382 231.363 120.366 229.181 129.27 221.676C129.699 221.2 130.579 220.699 131.008 220.223C143.697 220.439 156.364 220.202 168.816 220.204C160.464 225.188 153.581 232.356 144.28 236.485C135.645 240.351 130.08 242.239 124.269 248.216C123.603 248.479 122.914 248.29 122.011 248.339ZM189.983 190.973C195.889 195.86 201.773 200.296 207.871 204.493C205.873 205.281 204.112 206.283 202.114 207.071C187.382 206.74 172.626 205.957 158.062 204.485C160.274 203.459 162.938 202.408 165.388 201.596C173.831 198.419 181.8 194.815 189.983 190.973ZM153.209 207.014C167.107 208.748 181.174 209.342 195.003 209.722C189.01 212.086 182.993 213.998 176.999 216.363C176.548 216.387 176.119 216.863 175.668 216.888C162.312 216.935 149.171 216.744 135.793 216.34C141.03 212.431 146.312 209.427 152.068 206.849C152.757 207.038 152.757 207.038 153.209 207.014ZM162.785 239.781C173.212 231.061 181.61 226.981 194.049 222.229C196.713 221.178 199.162 220.365 201.589 219.101C203.847 218.978 206.105 218.855 208.362 218.733C210.169 218.634 210.055 216.376 208.677 215.998C211.77 214.471 214.648 213.182 217.741 211.655C223.387 215.877 228.582 220.124 233.586 225.06C233.823 225.273 234.06 225.487 234.297 225.7C225.234 230.043 215.887 233.269 206.541 236.495C198.978 239.171 193.573 244.22 187.456 248.629C180.637 248.094 173.412 248.487 166.616 248.404C160.271 248.296 153.926 248.188 147.344 247.867C152.672 245.766 158 243.664 162.785 239.781ZM171.319 184.516C159.532 184.251 147.938 183.297 136.129 182.58C134.537 182.44 132.945 182.301 131.353 182.161C132.019 181.898 132.899 181.397 133.565 181.135C144.175 176.028 154.028 169.378 163.169 162.088C164.446 164.962 165.96 168.05 168.355 170.637C171.721 174.53 175.538 178.398 179.57 182.029C177.358 183.055 175.36 183.843 173.362 184.631C172.673 184.442 172.222 184.467 171.319 184.516ZM105.627 188.316C112.355 187.044 118.417 186.035 124.456 184.574C126.737 184.903 129.017 185.232 130.824 185.133C142.441 186.539 154.25 187.256 165.585 187.545C165.585 187.545 165.585 187.545 166.036 187.52C159.377 190.147 152.694 192.322 145.797 194.735C140.899 196.361 136.948 198.84 132.784 201.558C118.649 199.609 104.536 198.112 90.4009 196.164C95.1859 192.28 99.1362 189.801 105.627 188.316ZM103.608 220.128C94.3078 224.257 87.8853 227.098 80.9013 236.762C77.7081 240.785 74.9893 245.236 72.2704 249.686C68.4207 249.669 64.5938 250.104 60.7213 249.635C56.8716 249.618 53.4279 248.673 49.9615 247.277C53.9895 241.849 58.0175 236.422 61.8539 231.684C64.8327 227.899 67.5742 223.9 70.3386 220.353C81.4134 219.977 92.5109 220.053 103.608 220.128ZM48.2691 249.633C51.024 250.389 53.8017 251.597 56.5339 251.901C61.0951 252.559 65.6108 252.313 70.578 252.043C68.0735 256.255 65.5691 260.467 63.5162 264.655C61.2584 264.778 59.4521 264.876 57.1943 264.999C50.4208 265.368 43.6701 266.188 36.9193 267.008C40.2358 260.94 44.0267 255.299 48.2691 249.633ZM87.7603 251.561C99.3094 251.612 110.599 250.998 122.125 250.598C121.696 251.074 121.053 251.788 120.624 252.264C117.86 255.811 115.333 259.572 113.042 263.546C107.838 263.603 102.634 263.66 97.2149 263.954C91.7733 263.798 86.3545 264.092 80.6985 264.173C82.9886 260.199 85.2559 255.773 87.7603 251.561ZM74.7088 275.595C76.3784 272.787 77.5964 270.003 79.4805 266.957C85.1364 266.876 90.3408 266.819 95.9968 266.738C101.201 266.681 106.406 266.625 111.373 266.355C106.77 273.851 102.641 281.775 98.9417 289.223C98.5129 289.699 98.5357 290.151 98.3213 290.389C93.8056 290.634 89.2672 290.428 84.7515 290.674C79.5471 290.731 74.3427 290.787 69.1155 290.392C68.8784 290.179 68.2124 290.442 67.5236 290.253C67.9391 285.022 71.3923 281.663 74.7088 275.595ZM89.11 318.743C93.1741 318.522 97.001 318.087 100.828 317.653C102.579 320.954 104.093 324.042 104.987 328.296C105.27 329.413 105.575 330.982 105.858 332.098C105.169 331.909 104.503 332.172 103.814 331.983C95.212 331.998 86.8466 332.227 78.4812 332.455C77.8247 328.415 77.1681 324.375 76.0601 320.359C80.3158 319.448 84.5943 318.989 89.11 318.743ZM122.094 362.239L122.071 361.787C131.486 359.916 140.64 357.38 150.032 355.058C150.903 358.86 151.537 362.449 153.074 365.988C144.11 367.835 135.125 369.229 126.162 371.076C124.433 368.226 123.156 365.351 122.094 362.239ZM121.268 359.34C120.375 355.086 120.836 350.758 120.156 346.266C119.523 342.678 119.081 338.399 118.424 334.359C127.478 334.319 136.318 334.518 145.112 333.813C146.028 338.518 147.396 343.199 148.313 347.905C148.618 349.474 148.924 351.042 149.229 352.611C139.838 354.933 130.66 357.017 121.268 359.34ZM152.716 322.983C151.134 318.54 148.525 316.191 148.275 311.222C147.719 304.686 150.529 302.042 153.653 296.663C154.894 294.331 156.135 291.999 157.376 289.667C164.601 289.274 172.04 288.643 179.266 288.25C175.771 299.763 176.002 313.337 174.788 325.179C172.102 325.778 169.2 326.615 166.299 327.452C162.518 328.79 158.477 329.463 154.65 329.897C154.084 327.664 153.519 325.43 152.716 322.983ZM336.962 591.493C337.797 590.089 335.471 588.857 334.636 590.261C333.801 591.665 332.966 593.069 332.131 594.473C330.28 593.668 328.428 592.863 326.124 592.083C320.614 590.571 315.127 589.511 309.64 588.45C313.6 581.668 317.56 574.885 321.045 567.676C325.155 568.358 329.219 568.137 333.16 569.961C339.618 572.327 342.104 576.721 346.633 581.23C352.607 587.472 359.235 588.696 367.454 590.061C370.423 590.579 373.393 591.096 376.599 591.828C373.397 600.154 369.957 608.267 366.065 616.405C365.614 616.429 364.925 616.24 364.474 616.265C351.885 613.553 344.971 602.153 334.243 595.944C335.078 594.539 336.127 592.897 336.962 591.493ZM261.867 570.442C266.73 563.611 271.378 557.017 275.789 550.21C281.842 553.504 288.752 555.846 294.805 559.14C295.493 559.329 295.968 559.756 296.656 559.945C293.386 566.916 288.286 573.534 282.926 579.487C276.422 576.217 269.297 574.114 262.341 570.869C262.341 570.869 262.104 570.656 261.867 570.442ZM246.374 483.196C252.089 488.773 257.352 494.374 263.879 498.095C265.462 502.538 266.908 504.271 270.42 506.571C267.486 511.26 263.864 515.759 260.242 520.259C255.973 516.415 250.847 513.523 245.72 510.632C245.483 510.418 245.46 509.967 245.223 509.753C244.037 508.685 242.614 507.404 241.428 506.336C244.215 503.241 247.217 499.907 250.004 496.812C251.076 495.621 249.416 494.127 248.344 495.317C245.557 498.413 242.555 501.746 239.768 504.842C237.396 502.706 235.239 500.333 233.725 497.245C231.951 493.491 230.346 488.597 229 484.368C228.221 482.372 228.152 481.017 226.424 478.167C228.782 475.548 231.355 472.69 233.713 470.071C237.622 475.746 241.394 478.711 246.374 483.196ZM221.61 494.96C224.707 502.491 228.762 506.573 234.385 510.343C228.597 516.772 222.593 523.439 216.805 529.868C213.722 527.092 211.09 524.291 209.079 520.324C207.045 515.906 205.18 510.346 203.812 505.665C203.574 505.452 203.077 504.573 203.077 504.573C208.223 498.858 213.368 493.144 218.514 487.429C220.028 490.517 220.593 492.751 221.61 494.96ZM236.734 512.027C238.372 513.07 240.009 514.113 241.646 515.156C242.121 515.583 243.024 515.534 243.476 515.51C247.53 519.591 253.697 525.144 254.882 526.211C255.12 526.425 255.12 526.425 255.357 526.639C253.856 528.305 252.592 530.186 251.092 531.852C247.041 536.828 243.227 542.018 239.628 546.969C234.433 542.722 228.832 539.404 223.017 536.323C222.78 536.11 222.757 535.658 222.52 535.445C221.334 534.377 220.148 533.309 218.962 532.242C224.728 525.361 230.731 518.694 236.734 512.027ZM255.753 530.014C256.182 529.538 256.611 529.061 256.825 528.823C261.185 534.474 263.57 541.364 269.24 546.037C270.663 547.319 272.063 548.148 273.7 549.191C269.289 555.998 264.426 562.83 259.778 569.423C252.991 565.037 251.6 559.905 246.077 553.638C244.631 551.905 242.971 550.41 241.311 548.915C245.959 542.322 250.631 536.18 255.753 530.014ZM298.745 560.963C305.012 564.019 311.923 566.361 319.001 567.561C315.279 574.557 311.556 581.553 307.36 588.121C299.806 586.494 292.467 584.629 285.015 580.505C290.137 574.339 295.475 567.935 298.745 560.963ZM366.908 579.221C353.63 576.32 347.72 562.375 334.182 558.809C323.162 555.785 312.945 555.209 302.523 550.568C302.715 549.878 302.669 548.974 302.861 548.285C303.007 546.692 300.726 546.363 300.58 547.956C300.388 548.646 300.411 549.097 300.22 549.787C299.531 549.598 298.819 548.957 298.131 548.768C292.315 545.688 285.665 544.012 279.85 540.931C271.731 537.07 270.577 532.151 265.506 525.86C264.534 524.554 263.348 523.486 262.162 522.419C265.784 517.919 269.169 513.206 272.554 508.493C273.954 509.323 275.355 510.152 277.444 511.171C286.274 515.672 294.451 525.191 302.255 531.787C307.213 535.82 312.362 539.163 318.798 541.077C327.989 543.747 336.218 540.809 345.048 545.31C349.937 547.988 354.229 552.284 359.525 554.034C366.672 556.589 379.284 559.752 386.769 560.025C396.297 560.412 405.124 555.856 413.521 551.776C415.263 559.38 417.716 567.626 421.004 574.467C404.401 581.937 385.435 582.969 366.908 579.221ZM232.637 462.204C232.988 464.676 233.317 466.696 234.074 468.24C233.859 468.478 233.859 468.478 233.645 468.716C231.287 471.336 229.143 473.717 226.784 476.336C225.485 473.01 223.519 469.946 221.553 466.883C224.984 463.073 228.628 459.025 232.059 455.216C232.173 457.474 232.524 459.946 232.637 462.204ZM213.835 475.455C216.038 478.732 217.337 482.058 218.637 485.384C213.492 491.099 208.346 496.814 203.201 502.528C201.855 498.299 200.081 494.546 198.093 491.031C203.261 485.768 208.429 480.505 213.361 475.028C213.598 475.242 213.598 475.242 213.835 475.455ZM191.678 458.092C188.01 461.688 184.343 465.284 180.438 468.667C179.466 467.361 178.043 466.08 177.072 464.774C182.026 459.749 186.743 454.51 190.296 448.656C191.742 450.389 193.425 452.335 195.108 454.282C194.036 455.472 192.75 456.901 191.678 458.092ZM169.299 476.746C169.773 477.173 170.01 477.386 170.27 478.051C166.817 481.409 163.15 485.006 159.934 488.577C158.647 490.006 157.361 491.435 156.074 492.863C155.34 491.771 154.154 490.703 153.42 489.611C154.706 488.182 156.207 486.516 157.494 485.087C160.472 481.302 163.925 477.944 167.379 474.585C167.876 475.464 168.587 476.105 169.299 476.746ZM161.36 498.916C160.152 497.397 158.729 496.116 157.52 494.596C160.951 490.787 164.166 487.215 167.834 483.619C169.12 482.19 170.644 480.975 171.93 479.546C176.719 484.72 181.7 489.205 185.846 495.094C186.58 496.186 187.314 497.278 187.834 498.609C183.738 502.681 179.641 506.754 175.093 510.851C174.022 512.041 172.712 513.018 171.64 514.209C168.872 508.698 165.698 504.115 161.36 498.916ZM188.614 500.604C190.411 504.809 191.756 509.038 193.338 513.481C188.193 519.196 183.047 524.911 177.902 530.625C177.642 529.96 177.382 529.295 177.122 528.63C175.777 524.4 174.217 520.409 172.68 516.87C178.063 511.368 183.231 506.105 188.614 500.604ZM193.429 515.288C195.587 517.662 194.661 517.259 194.706 518.162C198.346 527.475 203.563 532.173 210.35 536.56C204.347 543.227 198.344 549.894 192.126 556.799C188.332 553.382 184.514 549.514 182.006 544.668C180.232 540.915 180.784 538.394 177.327 532.695C182.924 526.956 188.069 521.241 193.429 515.288ZM213.173 538.671C214.811 539.714 216.448 540.757 218.086 541.8C218.797 542.441 219.7 542.392 220.152 542.367C224.918 547.09 232.27 553.71 233.456 554.777L233.693 554.991C231.572 557.824 229.451 560.657 227.567 563.703C224.611 567.94 221.203 572.201 218.01 576.224C212.104 571.337 205.34 567.403 198.813 563.682C198.575 563.468 198.553 563.017 198.078 562.59C196.892 561.522 195.707 560.454 194.521 559.386C200.738 552.481 206.956 545.576 213.173 538.671ZM232.206 561.412C233.255 559.77 234.541 558.342 235.376 556.937C240.471 563.68 243.613 572.114 250.231 577.642C250.942 578.283 251.868 578.685 252.342 579.112C249.792 582.421 247.028 585.969 244.478 589.278C242.142 592.348 239.57 595.206 236.783 598.301C232.276 594.244 229.982 589.16 225.171 583.534C223.251 581.374 221.568 579.428 219.433 577.506C224.15 572.267 228.178 566.84 232.206 561.412ZM291.589 616.606C294.951 611.441 298.55 606.49 301.912 601.325C304.43 601.868 306.734 602.648 309.014 602.977C314.501 604.037 319.92 603.743 325.238 605.944L325.476 606.158C321.302 613.178 317.127 620.199 313.168 626.981C304.689 624.952 296.469 623.587 288.442 621.533C289.491 619.891 290.54 618.248 291.589 616.606ZM363.305 629.009C363.994 629.198 364.682 629.387 365.371 629.576C371.999 630.801 380.003 632.404 387.963 633.103C383.857 641.478 379.514 649.64 375.408 658.016C371.084 657.572 366.738 656.676 362.391 655.78C358.733 655.073 355.481 653.439 352.229 651.804C355.691 644.143 359.391 636.695 363.305 629.009ZM437.743 646.02C443.181 637.119 448.619 628.218 453.819 619.104C456.921 613.274 460.024 607.444 463.34 601.376C463.554 601.138 463.554 601.138 464.006 601.113C471.309 597.772 478.634 594.883 486.197 592.207C480.873 603.366 475.098 614.55 469.774 625.709C469.368 626.637 468.748 627.803 468.342 628.731C463.917 630.783 459.967 633.262 455.825 636.431C449.516 641.53 442.925 645.512 436.288 648.59C436.694 647.662 437.1 646.734 437.743 646.02ZM472.552 626.916C473.578 624.823 474.582 622.277 475.608 620.183C480.312 610.19 485.252 600.41 489.741 590.655C491.073 590.13 492.62 589.366 493.952 588.841C501.492 585.713 511.978 582.652 517.552 576.461C518.839 575.033 518.296 573.25 517.11 572.183C520.417 570.418 524.176 568.628 527.483 566.863C525.024 571.979 522.565 577.094 519.418 582.021C513.957 590.47 507.074 597.638 500.687 605.685C496.851 610.423 493.489 615.587 490.364 620.966C484.11 622.664 478.094 624.577 472.552 626.916ZM26.64 305.61C27.3704 297.645 26.7233 289.302 29.7343 281.665C31.1212 277.74 33.1969 274.004 35.0354 270.054C41.5717 269.472 48.0852 268.438 54.6215 267.856C56.8794 267.734 59.1372 267.611 61.8466 267.463C59.771 271.2 57.718 275.387 55.8568 278.885C53.9955 282.383 52.823 286.07 52.1021 289.733C51.8877 289.971 51.6733 290.209 51.4589 290.447C51.0301 290.923 51.0756 291.827 51.7644 292.016C51.7094 295.415 52.1287 299.242 53.6656 302.782C55.9823 308.317 59.1794 313.351 61.2589 318.673C52.2731 320.068 43.2873 321.462 34.2788 322.405C37.8002 320.402 41.796 318.826 43.4106 319.418C43.885 319.845 44.291 318.917 44.0538 318.703L41.9421 317.233C41.7049 317.019 41.2533 317.044 41.0389 317.282C36.4227 320.024 31.9754 321.625 26.8621 323.488C25.293 323.8 25.644 326.272 27.4503 326.173C38.9766 325.773 50.8862 323.993 62.3442 322.237C62.367 322.689 62.6041 322.902 62.6269 323.354C63.2379 326.491 64.0633 329.39 64.9114 332.741C63.1052 332.839 61.5133 332.699 59.707 332.797C48.4179 333.411 36.1573 332.72 25.4563 336.019C25.1508 334.451 25.0825 333.096 24.777 331.527C23.8927 322.97 25.9551 314.479 26.64 305.61ZM25.8301 338.943C29.4426 338.746 32.8408 338.788 35.719 337.499C45.3935 336.293 55.328 335.753 65.2625 335.213C65.8734 338.35 66.6988 341.249 67.3098 344.386C69.0744 352.442 70.579 359.833 72.9868 367.175C70.5146 367.536 68.0424 367.897 65.5701 368.257C60.1741 369.004 54.9697 369.06 49.5737 369.807C46.6499 370.192 43.9633 370.791 41.2766 371.391C40.8023 370.963 40.7795 370.512 40.3052 370.085C43.635 368.771 47.6991 368.55 50.0025 369.331C50.6912 369.52 50.8601 368.378 50.4085 368.403C47.6308 367.195 43.1151 367.441 39.0966 368.565C33.4367 359.589 27.9912 350.374 25.8301 338.943ZM71.4543 426.588C66.7754 414.614 62.8079 403.281 56.3682 392.309C60.4323 392.088 64.6881 391.177 68.2779 390.529C72.5336 389.618 77.9296 388.871 81.6655 386.63C83.9366 391.262 85.9934 396.132 87.813 400.788C82.8913 401.962 77.7552 403.374 72.8791 405.45C71.5471 405.976 71.6382 407.782 73.0157 408.16C76.6965 409.319 80.0947 409.361 84.3504 408.45C85.0163 408.187 84.9708 407.284 84.0677 407.333C81.5954 407.694 79.552 407.578 77.2486 406.798C81.03 405.46 84.597 404.36 88.6155 403.236C89.9152 406.562 90.7634 409.912 91.6343 413.715C95.6984 413.494 99.9997 413.486 104.064 413.265C102.481 408.822 100.899 404.379 99.1021 400.174C102.455 399.313 105.785 397.999 109.137 397.138C114.488 395.488 119.838 393.838 124.974 392.426C127.291 397.962 129.179 403.973 130.423 410.699C130.683 411.364 130.706 411.816 130.752 412.719C131.203 412.694 132.106 412.645 132.558 412.621C126.87 416.553 119.216 417.423 112.511 419.146C111.179 419.671 109.847 420.197 108.515 420.722C103.073 420.565 97.869 420.622 92.4275 420.465C92.4502 420.917 92.6874 421.13 92.7102 421.582C86.6482 422.591 78.8938 425.957 71.4543 426.588ZM192.624 427.469C191.224 426.64 189.609 426.048 187.995 425.457C187.023 424.151 186.503 422.82 185.746 421.276C181.659 421.046 177.335 420.602 173.248 420.371C173.508 421.036 174.005 421.915 174.265 422.58C166.972 421.618 159.441 420.443 152.148 419.481C148.513 419.226 144.9 419.422 141.051 419.405C133.588 419.585 125.675 419.789 118.212 419.968C125.155 418.458 132.12 417.4 137.525 412.351C137.74 412.112 137.74 412.112 137.954 411.874C139.76 411.776 141.804 411.891 143.61 411.793C140.751 404.476 138.343 397.134 135.484 389.817C139.288 388.93 142.877 388.282 146.919 387.61C148.939 387.273 148.566 384.35 146.782 384.9C142.741 385.572 138.485 386.483 134.444 387.156C133.167 384.282 131.89 381.407 130.399 378.771C129.404 377.013 128.647 375.469 127.653 373.712C136.616 371.866 145.365 370.257 154.113 368.649C154.87 370.193 155.413 371.975 156.384 373.281C161.638 383.186 165.232 391.595 167.822 402.55C168.433 405.687 169.258 408.586 170.298 411.247C174.148 411.264 177.783 411.519 181.418 411.775C176.073 400.063 172.918 386.875 166.907 375.426C165.179 372.576 163.902 369.702 162.173 366.852C163.742 366.54 165.311 366.229 166.88 365.917C168.664 365.367 167.861 362.92 166.078 363.469C164.509 363.781 162.94 364.093 161.156 364.643C160.659 363.764 160.376 362.647 159.879 361.769C159.054 358.87 158.68 355.946 158.543 353.236C163.251 352.301 167.935 350.914 172.643 349.978C174.212 349.667 173.409 347.219 171.84 347.531C167.133 348.466 162.877 349.377 158.407 350.526C158.361 349.623 158.316 348.72 158.056 348.054C157.376 343.562 156.652 338.167 155.712 333.01C158.873 332.838 162.012 332.214 164.913 331.377C168.48 330.277 171.595 329.202 174.948 328.34C174.194 335.854 174.737 337.636 178.714 344.666C185.436 356.755 189.518 370.347 196.692 382.411C198.16 384.596 199.843 386.542 201.289 388.275C207.332 395.872 205.051 395.543 208.508 401.243C214.168 410.22 222.706 417.907 227.271 427.623C230.842 435.581 231.512 444.376 232.396 452.933C232.159 452.719 231.493 452.982 231.279 453.22C227.849 457.03 224.204 461.078 220.773 464.887C220.276 464.009 219.565 463.368 218.853 462.727C214.516 457.529 209.727 452.354 205.175 447.394C207.748 444.536 210.321 441.679 213.605 439.462C217.747 436.293 221.72 434.265 225.15 430.455C226.008 429.503 224.585 428.222 223.727 429.174C219.462 434.388 213.254 436.99 208.277 441.564C206.991 442.992 205.467 444.207 203.967 445.874C203.729 445.661 203.255 445.233 203.018 445.02C202.781 444.806 202.306 444.379 202.069 444.166C202.521 444.141 203.21 444.33 204.113 444.281C209.103 444.463 208.761 437.688 204.843 436.316C200.236 434.755 196.565 429.293 192.624 427.469ZM124.281 513.388C127.994 510.695 131.944 508.216 135.206 505.548C137.61 503.832 139.776 501.902 142.18 500.186C143.603 501.468 144.812 502.987 146.235 504.268C141.947 509.03 137.659 513.793 133.134 518.341C132.491 519.056 131.633 520.008 130.753 520.509C130.041 519.868 129.544 518.99 128.833 518.349C127.172 516.854 125.727 515.121 124.281 513.388ZM150.136 545.723C149.425 545.082 148.69 543.99 148.193 543.111C152.696 538.111 157.435 533.324 161.723 528.562C163.543 533.218 164.934 538.351 166.753 543.007C163.752 546.341 160.75 549.674 157.534 553.246C154.925 550.897 152.316 548.548 150.136 545.723ZM159.646 554.716C162.433 551.621 165.22 548.525 168.007 545.43C172.335 554.932 177.553 559.63 185.503 564.632C183.144 567.252 181 569.633 178.642 572.252C176.225 569.213 173.356 566.199 170.036 563.209C166.501 560.458 162.966 557.706 159.646 554.716ZM180.585 574.864C183.158 572.006 185.516 569.387 188.089 566.53C189.726 567.573 191.364 568.616 193.238 569.873C194.164 570.275 194.853 570.464 195.756 570.415C201.234 575.778 209.772 583.466 211.195 584.747C206.072 590.914 201.187 597.294 196.278 603.222C196.018 602.557 195.521 601.678 195.261 601.013C190.933 591.511 186.414 582.699 180.585 574.864ZM197.318 605.883C200.274 601.646 203.444 597.171 206.638 593.148C208.567 591.005 210.259 588.648 212.189 586.505C217.972 593.437 221.137 602.323 227.586 608.992C222.869 614.23 218.367 619.231 214.125 624.896C207.744 619.582 201.769 613.34 197.318 605.883ZM215.502 625.274C220.479 620.701 225.433 615.676 229.935 610.676C230.172 610.889 230.172 610.889 230.409 611.103C236.079 615.776 243.034 619.021 250.205 622.028C249.347 622.98 248.726 624.146 247.869 625.099C244.698 629.574 240.817 633.408 237.172 637.456C229.29 633.808 222.075 629.898 215.502 625.274ZM280.329 658.206C276.343 655.479 271.69 653.015 267.275 650.764C269.205 648.621 271.112 646.026 272.804 643.67C274.925 640.837 277.046 638.004 279.168 635.171C285.389 637.324 291.825 639.238 298.001 640.488C300.281 640.816 302.562 641.145 304.605 641.261C304.199 642.188 303.556 642.903 302.936 644.069C298.761 651.089 294.373 658.348 290.199 665.368C287.353 662.806 283.841 660.506 280.329 658.206ZM292.548 667.052C296.936 659.794 301.325 652.535 305.476 645.063C306.097 643.897 306.717 642.731 307.552 641.327C310.521 641.845 313.705 642.124 316.483 643.332C324.793 646.503 328.487 652.416 334.676 658.42C336.834 660.794 339.183 662.477 341.509 663.71C338.813 668.612 336.116 673.514 333.658 678.629C331.176 683.293 328.265 688.434 326.021 693.311C325.309 692.671 324.384 692.268 323.909 691.841C313.113 684.276 303.152 675.307 292.548 667.052ZM328.867 695.874C334.022 685.856 339.177 675.838 344.332 665.821C349.91 668.687 355.849 669.723 362.713 671.161C364.305 671.301 365.92 671.893 367.512 672.032C361.522 683.454 353.771 695.878 353.529 709.025C344.384 707.258 336.625 701.566 328.867 695.874ZM358.756 709.42C358.304 709.445 357.616 709.256 356.95 709.518C358.31 696.084 364.3 684.662 370.481 672.55C381.004 674.695 393.073 676.077 404.102 674.798C398.518 685.291 391.557 695.407 389.203 707.084C378.862 708.553 368.499 709.569 358.756 709.42ZM573.196 624.838C539.099 644.583 503.862 664.163 468.037 681.057C445.033 691.819 418.587 701.636 391.889 706.485C391.889 706.485 391.889 706.485 392.104 706.247C392.318 706.009 392.081 705.796 392.058 705.344C396.027 694.259 401.871 684.43 407.455 673.936C412.162 673 416.609 671.4 420.559 668.92C421.463 668.871 422.129 668.609 423.032 668.559C419.592 676.672 416.389 684.999 410.86 692.093C409.788 693.283 412.092 694.064 412.092 694.064C418.524 686.921 420.677 680.236 423.474 672.838C424.071 671.22 424.906 669.816 425.718 667.96C432.424 666.237 440.132 661.968 444.986 659.44C450.291 656.886 454.861 653.241 459.432 649.596C458.068 653.972 457.155 658.325 458.738 662.768C458.998 663.433 460.161 664.049 460.804 663.334C465.375 659.689 468.545 655.214 468.7 649.318C468.678 648.866 467.989 648.677 467.797 649.367C467.359 654.146 465.283 657.882 461.333 660.362C460.846 655.18 462.424 650.565 464.454 645.926C468.382 642.995 472.309 640.064 476.971 638.225C478.517 637.461 480.063 636.698 481.633 636.386C479.32 639.909 477.007 643.431 474.694 646.954C474.265 647.43 474.977 648.071 475.406 647.595C479.288 643.76 482.458 639.285 485.628 634.81C494.5 631.157 503.158 627.742 511.815 624.328C515.811 622.752 520.259 621.151 524.469 619.337C522.754 621.242 521.275 623.36 519.583 625.717C515.769 630.906 512.216 636.761 507.713 641.761C502.568 647.476 495.977 651.457 491.068 657.386C490.639 657.862 491.351 658.503 491.78 658.026C497.637 652.952 504.228 648.97 509.611 643.469C514.779 638.206 518.739 631.424 523.196 625.52C525.317 622.687 527.438 619.855 529.796 617.235C533.318 615.232 536.602 613.016 538.96 610.396C540.247 608.968 539.941 607.399 538.97 606.093C539.399 605.617 540.042 604.903 540.234 604.213C557.435 595.125 576.342 588.435 591.034 574.502C603.346 562.736 617.409 554.272 628.061 541.011C638.927 527.513 634.855 509.618 646.195 496.547C651.532 490.142 659.309 487.228 665.144 481.703C669.048 478.32 672.693 474.272 676.123 470.462C680.246 475.899 684.821 481.312 688.041 486.798C689.769 489.647 691.498 492.497 693.226 495.347C680.194 510.775 666.924 525.99 656.523 544.219C636.984 578.796 607.959 604.831 573.196 624.838Z" fill="#DCDAD1" fill-opacity="0.39"/>
</g>
<defs>
<clipPath id="clip0_721_1668">
<rect width="797" height="745" fill="white"/>
</clipPath>
</defs>
</svg>
